<?xml version="1.0" encoding="UTF-8"?>
<svg version="1.1" xmlns="http://www.w3.org/2000/svg" width="900" height="900">
<path d="M0 0 C2.29889466 0.00538039 4.59759543 0.00000827 6.89648438 -0.00634766 C27.43470911 -0.01767924 27.43470911 -0.01767924 36.48242188 2.50537109 C40.73615561 3.64661673 44.97222619 4.60026951 49.29492188 5.44287109 C63.88592511 8.5729543 76.85164217 13.76214175 89.81445312 21.09033203 C92.38465397 22.53099724 94.99908845 23.88526337 97.60742188 25.25537109 C106.14855097 29.95750099 113.63566317 35.81833649 121.10742188 42.04833984 C123.30355376 43.832697 125.5231929 45.47250089 127.85742188 47.06787109 C128.78554688 47.74849609 129.71367188 48.42912109 130.66992188 49.13037109 C130.66992188 49.79037109 130.66992188 50.45037109 130.66992188 51.13037109 C131.32992188 51.13037109 131.98992187 51.13037109 132.66992188 51.13037109 C132.66992188 51.79037109 132.66992188 52.45037109 132.66992188 53.13037109 C133.32992188 53.13037109 133.98992187 53.13037109 134.66992188 53.13037109 C134.66992188 53.79037109 134.66992188 54.45037109 134.66992188 55.13037109 C135.32992188 55.13037109 135.98992187 55.13037109 136.66992188 55.13037109 C140.66992188 59.60095933 140.66992188 59.60095933 140.66992188 62.13037109 C141.32992188 62.13037109 141.98992187 62.13037109 142.66992188 62.13037109 C144.61523438 64.24755859 144.61523438 64.24755859 146.79492188 67.00537109 C147.519375 67.91029297 148.24382812 68.81521484 148.99023438 69.74755859 C150.66992188 72.13037109 150.66992188 72.13037109 150.66992188 74.13037109 C151.32992188 74.13037109 151.98992187 74.13037109 152.66992188 74.13037109 C154.78006578 76.53420602 156.46658667 79.28003427 158.23242188 81.94287109 C158.76746338 82.74732666 159.30250488 83.55178223 159.85375977 84.38061523 C164.963437 92.25895541 168.96668483 100.50368237 172.75634766 109.07861328 C173.970933 111.80639929 175.26459651 114.4954497 176.54492188 117.19287109 C178.47293948 121.44115817 179.87101873 125.73208858 181.09179688 130.23193359 C181.5047091 132.1219729 181.5047091 132.1219729 182.66992188 133.13037109 C183.35813903 136.33207701 183.96780214 139.53972498 184.56445312 142.75927734 C184.97608508 146.23787183 184.97608508 146.23787183 186.66992188 149.13037109 C188.72671902 162.0248478 188.9490828 174.8742535 188.89697266 187.90039062 C188.89640692 189.91287226 188.89672826 191.9253543 188.89785767 193.93783569 C188.89842584 199.34159331 188.8867593 204.74526011 188.87270975 210.14899683 C188.8601121 215.81839174 188.85902483 221.48778929 188.85665894 227.15719604 C188.8504705 237.86640494 188.83409577 248.57557245 188.81395996 259.28476322 C188.79151837 271.48808655 188.78058685 283.69141197 188.77056909 295.89475083 C188.74972689 320.97331376 188.71460279 346.0518401 188.66992188 371.13037109 C184.97236551 372.48080274 181.86352071 373.37970125 177.92422485 373.33291626 C176.57400238 373.32441902 176.57400238 373.32441902 175.19650269 373.31575012 C173.74209274 373.29093819 173.74209274 373.29093819 172.25830078 373.265625 C171.22354614 373.25616348 170.1887915 373.24670197 169.12268066 373.23695374 C165.71376535 373.20336517 162.30522045 373.15522492 158.89648438 373.10693359 C156.52852334 373.08075731 154.16055209 373.05549104 151.79257202 373.03109741 C145.56836995 372.96453642 139.34438352 372.88562376 133.12036133 372.80413818 C126.76587178 372.72313051 120.41125596 372.65380489 114.05664062 372.58349609 C101.5942497 372.44388763 89.13205535 372.2912301 76.66992188 372.13037109 C74.25003745 368.39755827 74.39089418 364.71826186 74.41836548 360.42326355 C74.41391027 359.25182382 74.41391027 359.25182382 74.40936506 358.05671865 C74.40172006 355.43690797 74.40822135 352.81732116 74.41455078 350.19750977 C74.41180093 348.31980233 74.40812106 346.44209605 74.40357971 344.56439209 C74.39546189 340.51728431 74.39330083 336.47023181 74.39552689 332.42311668 C74.3983607 326.0126889 74.38400278 319.60237129 74.36654663 313.19197083 C74.31953448 294.96157506 74.29559939 276.73118609 74.2890625 258.50073242 C74.28530069 248.43455503 74.26717673 238.36850174 74.23396814 228.30237752 C74.21384163 221.94228644 74.21134174 215.58251741 74.22224832 209.2224077 C74.22487318 205.24462506 74.21076423 201.26702605 74.19216728 197.28929138 C74.18688697 195.45889268 74.18826987 193.62845925 74.19720268 191.79807472 C74.29039355 171.00762696 69.54125492 152.50298424 54.79736328 137.13452148 C39.87048947 122.18973748 22.35452927 114.96441088 1.29492188 114.69287109 C-18.94050583 114.82307573 -35.29813228 121.61712825 -49.84179688 135.51708984 C-52.17040199 137.96267355 -54.26569436 140.46054687 -56.33007812 143.13037109 C-57.01070312 143.94763672 -57.69132813 144.76490234 -58.39257812 145.60693359 C-69.4540116 160.01355864 -70.9302298 176.88875567 -70.86010742 194.28710938 C-70.86722171 196.16296602 -70.87609228 198.03881669 -70.88656616 199.91465759 C-70.90998085 204.96153783 -70.90946929 210.00815771 -70.9046514 215.05507898 C-70.90405435 220.3525136 -70.92680142 225.64984723 -70.94721985 230.94723511 C-70.98250848 240.96350351 -70.99862641 250.97969955 -71.00699502 260.99602306 C-71.01999542 275.71475446 -71.05827587 290.43342586 -71.10109425 305.1520977 C-71.10423293 306.23220466 -71.10737162 307.31231161 -71.11060542 308.42514908 C-71.11688554 310.57832931 -71.12322912 312.73150936 -71.12963802 314.88468921 C-71.14768686 321.18474889 -71.15880507 327.48477295 -71.16393507 333.78485608 C-71.16776598 337.69543006 -71.17537871 341.60599106 -71.18374252 345.51655769 C-71.18670255 347.33020771 -71.18793853 349.14386148 -71.18733025 350.95751381 C-71.18666326 353.43135236 -71.192011 355.90510904 -71.19877625 358.37893677 C-71.19702587 359.09731189 -71.1952755 359.81568701 -71.19347209 360.55583107 C-71.20995554 364.20603518 -71.46383426 367.58021303 -72.33007812 371.13037109 C-77.85755165 373.4600081 -82.8426183 373.37247543 -88.72583008 373.28149414 C-90.2755526 373.2697113 -90.2755526 373.2697113 -91.85658264 373.25769043 C-95.26068557 373.22918446 -98.66442193 373.18591611 -102.06835938 373.14208984 C-104.4339271 373.11845136 -106.7995026 373.09557884 -109.16508484 373.07344055 C-114.11543836 373.02496219 -119.06565026 372.96960217 -124.01586914 372.90893555 C-130.37608941 372.83120394 -136.73635549 372.7669252 -143.09676838 372.70727825 C-147.9770716 372.66067662 -152.85730812 372.60888895 -157.73753929 372.55530739 C-160.08400412 372.52981905 -162.43048225 372.50552672 -164.77697182 372.4824276 C-168.04516305 372.44910697 -171.31320693 372.40926332 -174.58129883 372.36743164 C-175.55945557 372.35853409 -176.5376123 372.34963654 -177.54541016 372.34046936 C-178.43001419 372.32779022 -179.31461823 372.31511108 -180.22602844 372.30204773 C-180.99899419 372.29299754 -181.77195993 372.28394735 -182.56834888 372.27462292 C-184.33007812 372.13037109 -184.33007812 372.13037109 -185.33007812 371.13037109 C-185.49156761 368.42796436 -185.58654921 365.74960321 -185.63989258 363.04418945 C-185.66021482 362.17645212 -185.68053707 361.30871479 -185.70147514 360.41468239 C-185.76775577 357.45412576 -185.82502627 354.4934862 -185.88085938 351.53271484 C-185.91208106 349.97024175 -185.91208106 349.97024175 -185.94393349 348.37620354 C-186.5288535 318.49824816 -186.51764095 288.61559518 -186.51518929 258.7331413 C-186.51554089 252.42978545 -186.52720462 246.12648484 -186.54112452 239.8231464 C-186.55432559 233.61376784 -186.55956006 227.40441352 -186.55892545 221.19502109 C-186.55867556 217.54129284 -186.56123891 213.88763272 -186.5721035 210.23391914 C-186.60978147 196.59699744 -186.51620231 183.01044879 -185.45239258 169.4074707 C-185.37638667 168.43443025 -185.30038076 167.46138979 -185.22207165 166.45886326 C-181.4579843 123.98592567 -161.51654677 85.5948623 -132.33007812 55.13037109 C-131.84249023 54.61555176 -131.35490234 54.10073242 -130.85253906 53.5703125 C-124.17603742 46.54802462 -117.33845601 40.63829143 -109.33007812 35.13037109 C-107.49517992 33.75746006 -105.66185132 32.38244882 -103.83007812 31.00537109 C-99.33951633 27.73367607 -94.72750891 25.00247929 -89.80664062 22.43115234 C-87.81490916 21.3850221 -85.87475038 20.24100414 -83.95507812 19.06787109 C-79.67723245 16.58796056 -75.01269597 15.00866502 -70.39257812 13.28662109 C-68.17740751 12.45028117 -65.99219992 11.53310404 -63.83007812 10.56787109 C-54.36913811 6.68212787 -44.70083521 4.4759949 -34.66601562 2.74365234 C-31.34801599 2.21384128 -31.34801599 2.21384128 -28.33007812 1.13037109 C-18.92783299 -0.03510604 -9.45767236 -0.02629379 0 0 Z " fill="#FE9650" transform="translate(448.330078125,263.86962890625)"/>
<path d="M0 0 C2.29889466 0.00538039 4.59759543 0.00000827 6.89648438 -0.00634766 C27.43470911 -0.01767924 27.43470911 -0.01767924 36.48242188 2.50537109 C40.73615561 3.64661673 44.97222619 4.60026951 49.29492188 5.44287109 C63.88592511 8.5729543 76.85164217 13.76214175 89.81445312 21.09033203 C92.38465397 22.53099724 94.99908845 23.88526337 97.60742188 25.25537109 C106.14855097 29.95750099 113.63566317 35.81833649 121.10742188 42.04833984 C123.30355376 43.832697 125.5231929 45.47250089 127.85742188 47.06787109 C128.78554688 47.74849609 129.71367188 48.42912109 130.66992188 49.13037109 C130.66992188 49.79037109 130.66992188 50.45037109 130.66992188 51.13037109 C131.32992188 51.13037109 131.98992187 51.13037109 132.66992188 51.13037109 C132.66992188 51.79037109 132.66992188 52.45037109 132.66992188 53.13037109 C133.32992188 53.13037109 133.98992187 53.13037109 134.66992188 53.13037109 C134.66992188 53.79037109 134.66992188 54.45037109 134.66992188 55.13037109 C135.32992188 55.13037109 135.98992187 55.13037109 136.66992188 55.13037109 C140.66992188 59.60095933 140.66992188 59.60095933 140.66992188 62.13037109 C141.32992188 62.13037109 141.98992187 62.13037109 142.66992188 62.13037109 C144.61523438 64.24755859 144.61523438 64.24755859 146.79492188 67.00537109 C147.519375 67.91029297 148.24382812 68.81521484 148.99023438 69.74755859 C150.66992188 72.13037109 150.66992188 72.13037109 150.66992188 74.13037109 C151.32992188 74.13037109 151.98992187 74.13037109 152.66992188 74.13037109 C154.78006578 76.53420602 156.46658667 79.28003427 158.23242188 81.94287109 C158.76746338 82.74732666 159.30250488 83.55178223 159.85375977 84.38061523 C164.963437 92.25895541 168.96668483 100.50368237 172.75634766 109.07861328 C173.970933 111.80639929 175.26459651 114.4954497 176.54492188 117.19287109 C178.47293948 121.44115817 179.87101873 125.73208858 181.09179688 130.23193359 C181.5047091 132.1219729 181.5047091 132.1219729 182.66992188 133.13037109 C183.35813903 136.33207701 183.96780214 139.53972498 184.56445312 142.75927734 C184.97608508 146.23787183 184.97608508 146.23787183 186.66992188 149.13037109 C188.72671902 162.0248478 188.9490828 174.8742535 188.89697266 187.90039062 C188.89640692 189.91287226 188.89672826 191.9253543 188.89785767 193.93783569 C188.89842584 199.34159331 188.8867593 204.74526011 188.87270975 210.14899683 C188.8601121 215.81839174 188.85902483 221.48778929 188.85665894 227.15719604 C188.8504705 237.86640494 188.83409577 248.57557245 188.81395996 259.28476322 C188.79151837 271.48808655 188.78058685 283.69141197 188.77056909 295.89475083 C188.74972689 320.97331376 188.71460279 346.0518401 188.66992188 371.13037109 C184.97236551 372.48080274 181.86352071 373.37970125 177.92422485 373.33291626 C176.57400238 373.32441902 176.57400238 373.32441902 175.19650269 373.31575012 C173.74209274 373.29093819 173.74209274 373.29093819 172.25830078 373.265625 C171.22354614 373.25616348 170.1887915 373.24670197 169.12268066 373.23695374 C165.71376535 373.20336517 162.30522045 373.15522492 158.89648438 373.10693359 C156.52852334 373.08075731 154.16055209 373.05549104 151.79257202 373.03109741 C145.56836995 372.96453642 139.34438352 372.88562376 133.12036133 372.80413818 C126.76587178 372.72313051 120.41125596 372.65380489 114.05664062 372.58349609 C101.5942497 372.44388763 89.13205535 372.2912301 76.66992188 372.13037109 C74.25003745 368.39755827 74.39089418 364.71826186 74.41836548 360.42326355 C74.41391027 359.25182382 74.41391027 359.25182382 74.40936506 358.05671865 C74.40172006 355.43690797 74.40822135 352.81732116 74.41455078 350.19750977 C74.41180093 348.31980233 74.40812106 346.44209605 74.40357971 344.56439209 C74.39546189 340.51728431 74.39330083 336.47023181 74.39552689 332.42311668 C74.3983607 326.0126889 74.38400278 319.60237129 74.36654663 313.19197083 C74.31953448 294.96157506 74.29559939 276.73118609 74.2890625 258.50073242 C74.28530069 248.43455503 74.26717673 238.36850174 74.23396814 228.30237752 C74.21384163 221.94228644 74.21134174 215.58251741 74.22224832 209.2224077 C74.22487318 205.24462506 74.21076423 201.26702605 74.19216728 197.28929138 C74.18688697 195.45889268 74.18826987 193.62845925 74.19720268 191.79807472 C74.29039355 171.00762696 69.54125492 152.50298424 54.79736328 137.13452148 C39.87048947 122.18973748 22.35452927 114.96441088 1.29492188 114.69287109 C-18.94050583 114.82307573 -35.29813228 121.61712825 -49.84179688 135.51708984 C-52.17040199 137.96267355 -54.26569436 140.46054687 -56.33007812 143.13037109 C-57.01070312 143.94763672 -57.69132813 144.76490234 -58.39257812 145.60693359 C-69.4540116 160.01355864 -70.9302298 176.88875567 -70.86010742 194.28710938 C-70.86722171 196.16296602 -70.87609228 198.03881669 -70.88656616 199.91465759 C-70.90998085 204.96153783 -70.90946929 210.00815771 -70.9046514 215.05507898 C-70.90405435 220.3525136 -70.92680142 225.64984723 -70.94721985 230.94723511 C-70.98250848 240.96350351 -70.99862641 250.97969955 -71.00699502 260.99602306 C-71.01999542 275.71475446 -71.05827587 290.43342586 -71.10109425 305.1520977 C-71.10423293 306.23220466 -71.10737162 307.31231161 -71.11060542 308.42514908 C-71.11688554 310.57832931 -71.12322912 312.73150936 -71.12963802 314.88468921 C-71.14768686 321.18474889 -71.15880507 327.48477295 -71.16393507 333.78485608 C-71.16776598 337.69543006 -71.17537871 341.60599106 -71.18374252 345.51655769 C-71.18670255 347.33020771 -71.18793853 349.14386148 -71.18733025 350.95751381 C-71.18666326 353.43135236 -71.192011 355.90510904 -71.19877625 358.37893677 C-71.19702587 359.09731189 -71.1952755 359.81568701 -71.19347209 360.55583107 C-71.20995554 364.20603518 -71.46383426 367.58021303 -72.33007812 371.13037109 C-77.85755165 373.4600081 -82.8426183 373.37247543 -88.72583008 373.28149414 C-90.2755526 373.2697113 -90.2755526 373.2697113 -91.85658264 373.25769043 C-95.26068557 373.22918446 -98.66442193 373.18591611 -102.06835938 373.14208984 C-104.4339271 373.11845136 -106.7995026 373.09557884 -109.16508484 373.07344055 C-114.11543836 373.02496219 -119.06565026 372.96960217 -124.01586914 372.90893555 C-130.37608941 372.83120394 -136.73635549 372.7669252 -143.09676838 372.70727825 C-147.9770716 372.66067662 -152.85730812 372.60888895 -157.73753929 372.55530739 C-160.08400412 372.52981905 -162.43048225 372.50552672 -164.77697182 372.4824276 C-168.04516305 372.44910697 -171.31320693 372.40926332 -174.58129883 372.36743164 C-175.55945557 372.35853409 -176.5376123 372.34963654 -177.54541016 372.34046936 C-178.43001419 372.32779022 -179.31461823 372.31511108 -180.22602844 372.30204773 C-180.99899419 372.29299754 -181.77195993 372.28394735 -182.56834888 372.27462292 C-184.33007812 372.13037109 -184.33007812 372.13037109 -185.33007812 371.13037109 C-185.49156761 368.42796436 -185.58654921 365.74960321 -185.63989258 363.04418945 C-185.66021482 362.17645212 -185.68053707 361.30871479 -185.70147514 360.41468239 C-185.76775577 357.45412576 -185.82502627 354.4934862 -185.88085938 351.53271484 C-185.91208106 349.97024175 -185.91208106 349.97024175 -185.94393349 348.37620354 C-186.5288535 318.49824816 -186.51764095 288.61559518 -186.51518929 258.7331413 C-186.51554089 252.42978545 -186.52720462 246.12648484 -186.54112452 239.8231464 C-186.55432559 233.61376784 -186.55956006 227.40441352 -186.55892545 221.19502109 C-186.55867556 217.54129284 -186.56123891 213.88763272 -186.5721035 210.23391914 C-186.60978147 196.59699744 -186.51620231 183.01044879 -185.45239258 169.4074707 C-185.37638667 168.43443025 -185.30038076 167.46138979 -185.22207165 166.45886326 C-181.4579843 123.98592567 -161.51654677 85.5948623 -132.33007812 55.13037109 C-131.84249023 54.61555176 -131.35490234 54.10073242 -130.85253906 53.5703125 C-124.17603742 46.54802462 -117.33845601 40.63829143 -109.33007812 35.13037109 C-107.49517992 33.75746006 -105.66185132 32.38244882 -103.83007812 31.00537109 C-99.33951633 27.73367607 -94.72750891 25.00247929 -89.80664062 22.43115234 C-87.81490916 21.3850221 -85.87475038 20.24100414 -83.95507812 19.06787109 C-79.67723245 16.58796056 -75.01269597 15.00866502 -70.39257812 13.28662109 C-68.17740751 12.45028117 -65.99219992 11.53310404 -63.83007812 10.56787109 C-54.36913811 6.68212787 -44.70083521 4.4759949 -34.66601562 2.74365234 C-31.34801599 2.21384128 -31.34801599 2.21384128 -28.33007812 1.13037109 C-18.92783299 -0.03510604 -9.45767236 -0.02629379 0 0 Z M-105.33007812 38.13037109 C-106.3071875 38.83033203 -107.28429687 39.53029297 -108.29101562 40.25146484 C-114.90687302 45.05921008 -120.7122945 50.1972441 -126.33007812 56.13037109 C-131.33007812 61.13037109 -131.33007812 61.13037109 -133.41992188 63.14990234 C-138.24248139 67.86012271 -142.50862824 72.57993618 -146.33007812 78.13037109 C-147.25240234 79.45488281 -147.25240234 79.45488281 -148.19335938 80.80615234 C-172.26310354 116.09286466 -182.71770896 154.21270916 -182.57299805 196.69702148 C-182.57407456 198.56847703 -182.57601867 200.43993225 -182.57875061 202.31138611 C-182.58353759 207.32679818 -182.57602555 212.34211927 -182.56579757 217.35752034 C-182.5569333 222.62558826 -182.55877599 227.89365404 -182.55915833 233.16172791 C-182.55822663 241.98470563 -182.54960244 250.8076486 -182.53588867 259.63061523 C-182.5200854 269.83576957 -182.51489368 280.04088616 -182.51562423 290.24605185 C-182.51629834 301.13360365 -182.50937451 312.02114089 -182.50017762 322.90868831 C-182.49804501 326.04326797 -182.49733633 329.17784529 -182.49693871 332.31242561 C-182.4959375 337.22011645 -182.48985928 342.12777538 -182.47977257 347.0354557 C-182.47684312 348.83908137 -182.47562309 350.6427107 -182.4762001 352.44633865 C-182.47668807 354.89912034 -182.47106261 357.35181156 -182.46379089 359.80458069 C-182.4653395 360.52507491 -182.4668881 361.24556913 -182.46848363 361.9878965 C-182.50082751 365.6831634 -182.50082751 365.6831634 -181.33007812 369.13037109 C-168.0827455 369.15351233 -154.83541766 369.17129531 -141.58806896 369.18218327 C-135.43720474 369.18740818 -129.28635432 369.19449877 -123.13549805 369.20581055 C-117.2027555 369.21665327 -111.27002624 369.22265089 -105.33727455 369.22524834 C-103.07059838 369.22710007 -100.80392296 369.2307159 -98.53725243 369.23610115 C-95.36946397 369.24332991 -92.20173089 369.24436125 -89.03393555 369.24389648 C-88.09094604 369.24749176 -87.14795654 369.25108704 -86.1763916 369.25479126 C-85.3140239 369.2534166 -84.45165619 369.25204193 -83.56315613 369.25062561 C-82.81373843 369.2515474 -82.06432074 369.2524692 -81.29219341 369.25341892 C-79.11491229 369.20099957 -79.11491229 369.20099957 -76.33007812 368.13037109 C-76.32768977 367.17529632 -76.32530142 366.22022154 -76.32284069 365.2362051 C-76.26392596 341.94775999 -76.18796955 318.65941735 -76.09436321 295.37108517 C-76.04948553 284.10880916 -76.01005248 272.84656422 -75.98364258 261.58422852 C-75.96059735 251.76272453 -75.92712687 241.94131949 -75.88137656 232.11989409 C-75.8575321 226.92429985 -75.83874598 221.72880306 -75.83246422 216.53315544 C-75.82637345 211.6321423 -75.80623108 206.73137823 -75.77580261 201.83045769 C-75.7670859 200.04199968 -75.76328642 198.25350903 -75.76506996 196.46503067 C-75.78194841 171.7065671 -70.11238187 150.24032197 -52.33007812 132.13037109 C-51.65332031 131.42912109 -50.9765625 130.72787109 -50.27929688 130.00537109 C-37.14240359 117.33853613 -18.53761952 110.70186649 -0.45507812 110.69287109 C6.70316568 110.8336535 13.68936282 111.47625948 20.66992188 113.13037109 C21.50394531 113.32501953 22.33796875 113.51966797 23.19726562 113.72021484 C36.25641762 117.20678149 49.86770991 124.7813534 58.42382812 135.44287109 C59.53564453 136.77318359 59.53564453 136.77318359 60.66992188 138.13037109 C61.32992187 138.13037109 61.98992187 138.13037109 62.66992188 138.13037109 C62.93160156 138.85611328 63.19328125 139.58185547 63.46289062 140.32958984 C64.69566474 143.19010453 66.18208046 145.40802232 67.98242188 147.94287109 C74.43939811 157.85075739 77.62920006 170.18222981 77.98632812 181.93066406 C78.00715454 182.61560062 78.02798096 183.30053719 78.04943848 184.0062294 C78.11683982 186.33654645 78.17555023 188.66696157 78.23242188 190.99755859 C78.25360077 191.82730068 78.27477966 192.65704277 78.29660034 193.51192856 C78.71435927 210.42792778 78.74883486 227.34282036 78.73242188 244.26318359 C78.73177986 244.92697745 78.73113785 245.59077131 78.73047638 246.27468014 C78.71951172 256.60159755 78.69553098 266.92848142 78.66992188 277.25537109 C78.64758597 286.28985339 78.62712079 295.32432363 78.61650372 304.35882843 C78.61090728 308.834881 78.59745644 313.31086707 78.58227539 317.78689575 C78.54743326 334.59238588 78.97848322 351.34028324 79.66992188 368.13037109 C103.69119064 368.83090615 127.70535897 369.23673536 151.73690796 369.25268555 C154.40247301 369.25447718 157.06799509 369.25760018 159.73355103 369.26293945 C163.49492054 369.26879596 167.25620784 369.26736169 171.01757812 369.26318359 C172.15314148 369.26516754 173.28870483 369.26715149 174.4586792 369.26919556 C175.49913391 369.26608368 176.53958862 369.2629718 177.61157227 369.25976562 C178.97470299 369.25857224 178.97470299 369.25857224 180.3653717 369.25735474 C182.83123576 369.22301887 182.83123576 369.22301887 185.66992188 368.13037109 C185.69332302 343.59923986 185.71093643 319.0681103 185.72173405 294.53697014 C185.7268817 283.1457367 185.73389513 271.75451022 185.74536133 260.36328125 C185.75535504 250.43014462 185.76178643 240.49701302 185.76401037 230.5638715 C185.76530953 225.30851373 185.76834485 220.05317037 185.77565193 214.79781723 C185.78248621 209.8419238 185.78452389 204.88605059 185.78302956 199.93015289 C185.78330258 198.12029281 185.78526345 196.31043199 185.78912735 194.50057602 C185.81655578 180.97924115 185.72118204 167.54545634 182.91992188 154.25537109 C182.74509277 153.4087793 182.57026367 152.5621875 182.39013672 151.68994141 C180.66923676 143.64900233 178.35653019 135.89498612 175.66992188 128.13037109 C175.35764648 127.18895264 175.35764648 127.18895264 175.0390625 126.22851562 C170.07608651 111.32049928 163.05361095 96.07792847 153.50268555 83.54394531 C152.23551651 81.87520505 150.99318717 80.18741578 149.77148438 78.48510742 C144.60758154 71.36494446 139.02548399 65.01385767 132.76855469 58.83789062 C131.29190388 57.3773861 129.83208276 55.90141937 128.37304688 54.42333984 C122.26213942 48.298623 115.82937488 43.00996693 108.66992188 38.13037109 C108.00105957 37.66018555 107.33219727 37.19 106.64306641 36.70556641 C92.80204619 27.00296996 78.65352765 19.6171557 62.66992188 14.13037109 C61.538125 13.73849609 60.40632812 13.34662109 59.24023438 12.94287109 C56.39171529 11.97678981 53.5359143 11.04307945 50.66992188 10.13037109 C49.45304688 9.73849609 48.23617187 9.34662109 46.98242188 8.94287109 C43.50532609 8.08999854 40.14895521 7.67679559 36.58789062 7.37646484 C34.66992188 7.13037109 34.66992188 7.13037109 32.66992188 6.13037109 C-13.98292521 -2.70474073 -67.29225716 9.69257161 -105.33007812 38.13037109 Z " fill="#FBA26A" transform="translate(448.330078125,263.86962890625)"/>
</svg>
