<?xml version="1.0" encoding="UTF-8"?>
<svg xmlns="http://www.w3.org/2000/svg" version="1.1" viewBox="0 0 699.8 132.2">
  <defs>
    <style>
      .cls-1 {
        fill: #ff9750;
      }

      .cls-2 {
        fill: #4f2396;
      }
    </style>
  </defs>
  <!-- Generator: Adobe Illustrator 28.7.1, SVG Export Plug-In . SVG Version: 1.2.0 Build 142)  -->
  <g>
    <g id="Layer_2">
      <g>
        <g>
          <path class="cls-2" d="M140.1,52.5c3.6-7.3,8.6-12.9,14.9-16.9,6.3-3.9,13.3-5.9,21.1-5.9s12.4,1.3,17.4,4c5,2.7,8.8,6.2,11.5,10.6v-13.3h28.8v94h-28.8v-13.3c-2.8,4.4-6.7,7.9-11.7,10.6-5,2.7-10.8,4-17.4,4s-14.6-2-20.9-6c-6.3-4-11.3-9.7-14.9-17-3.7-7.4-5.5-15.9-5.5-25.5s1.8-18.1,5.5-25.4ZM199.1,61.1c-4-4.2-8.8-6.2-14.6-6.2s-10.6,2.1-14.6,6.2c-4,4.1-6,9.7-6,16.9s2,12.9,6,17.1c4,4.2,8.8,6.3,14.6,6.3s10.6-2.1,14.6-6.2c4-4.2,6-9.8,6-17s-2-12.9-6-17Z"/>
          <path class="cls-2" d="M305.8,100.7v24.4h-14.7c-10.4,0-18.6-2.6-24.4-7.7-5.8-5.1-8.8-13.5-8.8-25v-37.4h-11.5v-23.9h11.5V8.2h28.8v22.9h18.9v23.9h-18.9v37.7c0,2.8.7,4.8,2,6.1,1.3,1.2,3.6,1.9,6.7,1.9h10.3Z"/>
          <path class="cls-2" d="M404.2,40.8c6.5,7.1,9.8,16.9,9.8,29.4v54.9h-28.6v-51.1c0-6.3-1.6-11.2-4.9-14.7-3.3-3.5-7.6-5.2-13.1-5.2s-9.9,1.7-13.1,5.2c-3.3,3.5-4.9,8.4-4.9,14.7v51.1h-28.8V.5h28.8v43.3c2.9-4.2,6.9-7.5,12-9.9,5.1-2.5,10.7-3.7,17-3.7,10.8,0,19.4,3.6,26,10.7Z"/>
          <path class="cls-2" d="M519.4,85.1h-65.2c.4,5.8,2.3,10.3,5.6,13.4,3.3,3.1,7.4,4.6,12.2,4.6,7.2,0,12.2-3,15-9.1h30.7c-1.6,6.2-4.4,11.7-8.5,16.7-4.1,4.9-9.2,8.8-15.4,11.6-6.2,2.8-13.1,4.2-20.7,4.2s-17.4-2-24.6-5.9c-7.2-3.9-12.8-9.5-16.9-16.9-4-7.3-6.1-15.8-6.1-25.6s2-18.3,6-25.6c4-7.3,9.6-12.9,16.8-16.9,7.2-3.9,15.4-5.9,24.8-5.9s17.2,1.9,24.3,5.7c7.1,3.8,12.6,9.3,16.6,16.3,4,7.1,6,15.3,6,24.8s-.2,5.5-.5,8.4ZM490.4,69.1c0-4.9-1.7-8.9-5.1-11.8-3.4-2.9-7.6-4.4-12.6-4.4s-8.9,1.4-12.2,4.2c-3.3,2.8-5.4,6.8-6.2,12h36.1Z"/>
          <path class="cls-2" d="M573,34.6c5.1-3,10.7-4.5,16.9-4.5v30.5h-7.9c-7.2,0-12.6,1.5-16.2,4.6-3.6,3.1-5.4,8.5-5.4,16.3v43.6h-28.8V31.1h28.8v15.7c3.4-5.2,7.6-9.2,12.6-12.2Z"/>
          <path class="cls-2" d="M121,40.7h-33.4c-2.4-4.1-5.4-7.4-9.8-9.5-4.1-2.2-9.1-3.3-14.7-3.3-9.8,0-17.6,3.3-23.4,9.8-6.1,6.3-8.9,15-8.9,25.6s3,20.4,9.3,26.9c6.1,6.5,14.5,9.5,25.6,9.5s13.7-2.2,18.4-6.3c4.1-3.7,6.9-8.9,7.8-15.6h-34.7v-22.3h65.9v11.9c0,20.6-7.2,35.3-18.2,45.1-11.1,9.5-26,14.1-41.6,14.1s-23.2-2.8-32.7-8c-9.8-5.4-17.1-13-22.6-22.6C2.6,86.5,0,75.6,0,63.3s2.6-23.2,8-32.7c5.4-9.5,12.8-17.1,22.3-22.6C39.9,2.8,51,0,63.1,0s27.3,3.7,37.7,10.8c10.2,7.2,16.9,17.1,20.2,29.9Z"/>
        </g>
        <path class="cls-1" d="M699.8,125h-29.2v-48.5c0-11-9-20-20-20s-20,9-20,20v48.5h-29.2v-48.5c0-27.1,22.1-49.2,49.2-49.2s49.2,22.1,49.2,49.2v48.5Z"/>
      </g>
    </g>
  </g>
</svg>