<?xml version="1.0" encoding="UTF-8"?>
<svg version="1.1" xmlns="http://www.w3.org/2000/svg" width="771" height="771">
<path d="M0 0 C3.91153372 0.78230674 7.42668659 2.2470538 11 4 C11.33 4.99 11.66 5.98 12 7 C12.763125 7.144375 13.52625 7.28875 14.3125 7.4375 C17 8 17 8 20 9 C20 9.66 20 10.32 20 11 C20.66 11 21.32 11 22 11 C22 11.66 22 12.32 22 13 C22.61875 13.2475 23.2375 13.495 23.875 13.75 C26 15 26 15 27 17.0625 C27.33 17.701875 27.66 18.34125 28 19 C28.56460937 19.10183594 29.12921875 19.20367187 29.7109375 19.30859375 C33.13208864 20.34194486 35.0531129 22.5598268 37.625 25 C41.02862436 28.38266503 41.02862436 28.38266503 45 31 C45 31.66 45 32.32 45 33 C45.66 33 46.32 33 47 33 C47 33.66 47 34.32 47 35 C47.66 35 48.32 35 49 35 C49 35.66 49 36.32 49 37 C49.66 37 50.32 37 51 37 C51 37.66 51 38.32 51 39 C51.66 39 52.32 39 53 39 C53 39.66 53 40.32 53 41 C53.66 41 54.32 41 55 41 C55 41.66 55 42.32 55 43 C55.66 43 56.32 43 57 43 C57 43.66 57 44.32 57 45 C57.61617188 45.24621094 58.23234375 45.49242187 58.8671875 45.74609375 C61.42178996 47.24797542 61.9650131 48.3769841 63.125 51.0625 C64.34829428 54.18259157 64.34829428 54.18259157 67 56 C69.3106498 59.97431766 70.4574852 63.44287564 71 68 C71.66 68 72.32 68 73 68 C74.48780292 70.55781875 75.96533338 73.12070266 77.4375 75.6875 C77.85837891 76.40873047 78.27925781 77.12996094 78.71289062 77.87304688 C80.81606794 81.55781352 82.53390468 84.70344855 83 89 C83.66 89 84.32 89 85 89 C85.37125 90.5159375 85.37125 90.5159375 85.75 92.0625 C86.67778139 95.32595483 88.10031348 97.94776632 89.859375 100.85546875 C92.41746892 105.66503575 94.12115833 110.89665979 96 116 C96.51995019 117.39616255 97.04062637 118.79205528 97.5625 120.1875 C97.79066406 120.80496094 98.01882813 121.42242187 98.25390625 122.05859375 C98.79913954 123.47734217 99.37364126 124.88493983 99.96484375 126.28515625 C102.30307452 131.85279254 103.95214009 137.34795842 105.2890625 143.23828125 C106.20607289 146.80051393 107.59637065 150.05261338 109.03515625 153.4296875 C111.09946343 158.34320954 112.39663516 162.67027726 113 168 C113.62787571 170.34406932 114.29508733 172.67793475 115 175 C116.56923596 180.29617138 117.85250668 185.60063409 119 191 C119.185625 191.845625 119.37125 192.69125 119.5625 193.5625 C120.29691991 197.65426805 121 201.83939253 121 206 C121.66 206.33 122.32 206.66 123 207 C122.34 207 121.68 207 121 207 C121 207.66 121 208.32 121 209 C121.66 209.33 122.32 209.66 123 210 C124.64246477 211.64246477 124 213.74810536 124 216 C124.30027117 217.67293936 124.63557767 219.33985384 125 221 C126.12676056 226.74647887 126.12676056 226.74647887 125 229 C125.66 229 126.32 229 127 229 C126.979375 230.03125 126.95875 231.0625 126.9375 232.125 C126.90089481 235.92311262 126.90089481 235.92311262 127.5625 239.3125 C128 242 128 242 127 244 C127.66 244 128.32 244 129 244 C128.67 246.97 128.34 249.94 128 253 C128.66 253 129.32 253 130 253 C129.67 253.66 129.34 254.32 129 255 C128.70025092 259.73958298 128.70025092 259.73958298 130 264.22265625 C131.31305937 267.86947349 131.25361737 271.3041118 131.1875 275.125 C131.18685547 275.84042969 131.18621094 276.55585938 131.18554688 277.29296875 C131.15897902 280.45159104 131.00523113 282.98430662 130 286 C130.66 286 131.32 286 132 286 C131.9278125 286.9178125 131.855625 287.835625 131.78125 288.78125 C131.14646295 296.60050413 131.14646295 296.60050413 131.0625 304.4375 C131 308 131 308 130 311.3125 C129.08647335 314.68112952 128.92361705 316.94254139 129 320.375 C129.11514175 325.57796789 128.318134 329.97461412 127 335 C126.34 335 125.68 335 125 335 C125.185625 335.598125 125.37125 336.19625 125.5625 336.8125 C126 339 126 339 125 342 C124.34 342 123.68 342 123 342 C122.938125 342.99 122.87625 343.98 122.8125 345 C121.70294008 352.64363503 115.46607375 360.64237347 109.37890625 365.21875 C107.62642755 366.28723586 105.87337849 367.16221583 104 368 C103.05060547 368.44859375 103.05060547 368.44859375 102.08203125 368.90625 C86.45556227 375.23892786 69.23847402 369.13918653 54.54077148 362.97460938 C36.0376701 354.88171868 19.48165477 343.47309809 3.61572266 331.07519531 C2.04595755 329.81533224 2.04595755 329.81533224 0 330 C-5.32250857 339.97426822 -5.32250857 339.97426822 -7 351 C-7.66 351 -8.32 351 -9 351 C-8.67 351.99 -8.34 352.98 -8 354 C-7.74574804 356.69224578 -7.53718674 359.36495288 -7.375 362.0625 C-7.29765625 363.16174805 -7.29765625 363.16174805 -7.21875 364.28320312 C-6.87712372 369.75424745 -6.87712372 369.75424745 -8 372 C-7.34 372 -6.68 372 -6 372 C-5.6596875 372.78503906 -5.319375 373.57007813 -4.96875 374.37890625 C-1.99018619 380.83510174 0.74734266 385.39406695 6.4609375 389.6953125 C6.96882813 390.12585938 7.47671875 390.55640625 8 391 C8 391.66 8 392.32 8 393 C9.051875 393.103125 10.10375 393.20625 11.1875 393.3125 C14.96985505 393.99456403 16.82626796 394.96555638 20 397 C22.82715505 398.06018314 25.54009092 398.90801818 28.5 399.5 C31 400 31 400 33.5625 401.0625 C37.94724457 402.25833943 41.96705167 402.10056311 46.48828125 401.97265625 C49 402 49 402 50 403 C61.54443 404.64920429 74.12172782 405.28603686 85.49609375 402.4375 C89.90492549 401.66715811 94.34279203 401.96525123 98.80078125 402.125 C102.07451355 401.9970886 104.00493878 401.21792838 107 400 C110.04296875 399.83984375 110.04296875 399.83984375 113.1875 399.9375 C117.24905471 400.18829355 117.24905471 400.18829355 121 399 C122.89280431 398.81904906 124.78964939 398.6791809 126.6875 398.5625 C131.38461313 398.20937574 135.4939131 397.41367432 140 396 C142.32914823 395.63858045 144.66253478 395.30300475 147 395 C152.38491985 394.00804108 157.76858819 392.83528947 163.0703125 391.46484375 C165 391 165 391 168.3125 390.5625 C172.01976488 389.99698502 175.39906594 389.04010296 179 388 C180.88086837 387.53076869 182.76182171 387.06176345 184.64575195 386.60498047 C198.43142064 383.75220946 198.43142064 383.75220946 211 378 C212.57072364 377.62928725 214.15715504 377.32220298 215.75 377.0625 C219.40078894 376.37961862 222.58383417 375.49475432 225.96875 373.9140625 C228.70806229 372.68137197 231.5054515 371.6315395 234.3125 370.5625 C242.97626168 367.24784204 251.55074169 363.83033044 260 360 C260.8765625 359.608125 261.753125 359.21625 262.65625 358.8125 C263.5740625 358.4 264.491875 357.9875 265.4375 357.5625 C266.26121094 357.19253906 267.08492187 356.82257813 267.93359375 356.44140625 C276.18660982 352.56196303 284.1074054 348.29992846 291.9375 343.625 C292.90389404 343.05136719 293.87028809 342.47773438 294.8659668 341.88671875 C300.55444151 338.4981263 306.17080892 335.02689747 311.734375 331.4375 C314.14926231 329.90529564 316.58704408 328.43233928 319.0625 327 C319.77535156 326.5875 320.48820313 326.175 321.22265625 325.75 C321.80917969 325.5025 322.39570312 325.255 323 325 C323.66 325.33 324.32 325.66 325 326 C325 327.32 325 328.64 325 330 C324.34 330 323.68 330 323 330 C322.71253906 330.5775 322.42507813 331.155 322.12890625 331.75 C317.93908266 340.10065186 313.11444074 347.90052165 307 355 C306.34 355 305.68 355 305 355 C304.77957031 355.53753906 304.55914063 356.07507813 304.33203125 356.62890625 C302.54828245 359.80408374 300.17071925 362.30555656 297.6875 364.9375 C297.15334473 365.50452637 296.61918945 366.07155273 296.06884766 366.65576172 C294.94241386 367.84658193 293.81345838 369.03502132 292.68212891 370.22119141 C291.08193649 371.91335424 289.51434855 373.63093228 287.94921875 375.35546875 C279.70953944 384.24015344 270.53325824 390.12802307 260 396 C259.15260254 396.4832373 258.30520508 396.96647461 257.43212891 397.46435547 C234.07529607 410.78325458 209.10329238 422.927176 183.18017578 430.34399414 C181.15611808 430.95302472 179.2124904 431.65513881 177.25 432.4375 C171.31140411 434.735531 165.12777577 436.29361825 159 438 C157.77925781 438.35964844 156.55851562 438.71929687 155.30078125 439.08984375 C152 440 152 440 148.25 440.5 C144.8620589 440.78737741 144.8620589 440.78737741 142 443 C140.33333333 443 138.66666667 443 137 443 C136.09121094 443.30808594 135.18242188 443.61617188 134.24609375 443.93359375 C130.93492589 445.02137814 127.82287468 445.58205845 124.375 446.0625 C120.28987146 446.60000339 120.28987146 446.60000339 116.26782227 447.45898438 C113.10572515 448.21333976 109.90601347 448.65730669 106.69140625 449.12109375 C105.97612762 449.22537186 105.260849 449.32964996 104.52389526 449.43708801 C102.20385347 449.77357197 99.88325069 450.10594287 97.5625 450.4375 C96.38423141 450.60699158 96.38423141 450.60699158 95.18215942 450.77990723 C84.76459583 452.27321077 74.36215626 453.61840633 63.86743164 454.45483398 C59.80288836 454.6970235 59.80288836 454.6970235 56 456 C54.64702339 456.09397224 53.28958497 456.12793378 51.93334961 456.12939453 C51.09585678 456.13254669 50.25836395 456.13569885 49.39549255 456.13894653 C48.49025345 456.1369223 47.58501434 456.13489807 46.65234375 456.1328125 C45.72531143 456.13376923 44.79827911 456.13472595 43.84315491 456.13571167 C41.88200818 456.13639276 39.9208592 456.1345434 37.9597168 456.13037109 C34.94640073 456.12501582 31.93323332 456.13032158 28.91992188 456.13671875 C27.01822884 456.13605807 25.11653589 456.13477713 23.21484375 456.1328125 C22.30758041 456.13483673 21.40031708 456.13686096 20.46556091 456.13894653 C14.11495378 456.11495378 14.11495378 456.11495378 13 455 C11.63442938 454.72763056 10.25791194 454.50956818 8.87890625 454.31640625 C8.03086426 454.19491211 7.18282227 454.07341797 6.30908203 453.94824219 C5.40270996 453.82094727 4.49633789 453.69365234 3.5625 453.5625 C1.71728289 453.28887096 -0.12777201 453.01414567 -1.97265625 452.73828125 C-4.66643482 452.33852747 -7.35757959 451.95387543 -10.05859375 451.60546875 C-19.98038739 450.08290008 -30.369119 444.41687721 -38 438 C-39.3125 435.75 -39.3125 435.75 -40 434 C-40.66 433.67 -41.32 433.34 -42 433 C-48.30839403 420.06088523 -47.10749047 406.27926046 -42.68017578 392.95654297 C-35.95908362 373.62315009 -25.86158498 356.5931535 -14 340 C-12.64378996 338.08477865 -11.28930687 336.16833174 -9.9375 334.25 C-9.41027344 333.51265625 -8.88304687 332.7753125 -8.33984375 332.015625 C-5.80238671 328.29725277 -5.80238671 328.29725277 -5 324 C-9.15435966 322.60478584 -13.31778316 321.24693218 -17.5 319.9375 C-18.5828125 319.59589844 -19.665625 319.25429688 -20.78125 318.90234375 C-31.41619522 315.92094527 -40.64619269 316.43799499 -51 320 C-52.32964525 320.34775337 -53.66196647 320.68606503 -55 321 C-55 321.66 -55 322.32 -55 323 C-56.66666667 324 -58.33333333 325 -60 326 C-64.34169918 329.80776854 -66.72201054 333.70369826 -69.1875 338.8125 C-69.52974609 339.48603516 -69.87199219 340.15957031 -70.22460938 340.85351562 C-73.59456754 347.69158607 -74.98319981 354.44662717 -76 362 C-76.165 362.639375 -76.33 363.27875 -76.5 363.9375 C-77.52417717 368.16223084 -78 372.47331071 -78 376.8125 C-78 379 -78 379 -79 382 C-79.09352995 383.74936304 -79.13069946 385.50204597 -79.1328125 387.25390625 C-79.13474609 388.78241211 -79.13474609 388.78241211 -79.13671875 390.34179688 C-79.13285156 391.40462891 -79.12898437 392.46746094 -79.125 393.5625 C-79.12886719 394.62919922 -79.13273438 395.69589844 -79.13671875 396.79492188 C-79.13542969 397.81263672 -79.13414062 398.83035156 -79.1328125 399.87890625 C-79.13112061 401.27991577 -79.13112061 401.27991577 -79.12939453 402.70922852 C-79.14999893 405.0300525 -79.14999893 405.0300525 -78 407 C-77.93001104 409.79518407 -78.00294839 412.57589002 -78.0625 415.37109375 C-78.12606814 418.11111337 -78.12606814 418.11111337 -77 421 C-77.33 421.66 -77.66 422.32 -78 423 C-77.34 423 -76.68 423 -76 423 C-76.01740234 424.37671875 -76.01740234 424.37671875 -76.03515625 425.78125 C-76.12832614 437.2689751 -76.12832614 437.2689751 -74 448.5 C-72.66584927 453.16952755 -72.17642314 457.80451209 -71.7890625 462.625 C-71.71429688 463.511875 -71.63953125 464.39875 -71.5625 465.3125 C-71.50191406 466.13363281 -71.44132813 466.95476562 -71.37890625 467.80078125 C-71.10428255 470.2827298 -71.10428255 470.2827298 -69 473 C-69.375 475.1875 -69.375 475.1875 -70 477 C-69.34 477 -68.68 477 -68 477 C-67.83165067 478.77067416 -67.66538091 480.54154612 -67.5 482.3125 C-67.4071875 483.29863281 -67.314375 484.28476562 -67.21875 485.30078125 C-67 488 -67 488 -67 491 C-66.34 491 -65.68 491 -65 491 C-64.855625 492.216875 -64.71125 493.43375 -64.5625 494.6875 C-64.17111379 497.82961462 -63.63638937 500.89760181 -63 504 C-62.65596692 506.33177975 -62.32050798 508.66487041 -62 511 C-61.34 511 -60.68 511 -60 511 C-60.33 512.32 -60.66 513.64 -61 515 C-60.34 515.33 -59.68 515.66 -59 516 C-59 517.98 -59 519.96 -59 522 C-58.34 522 -57.68 522 -57 522 C-55.875 526.75 -55.875 526.75 -57 529 C-56.34 529 -55.68 529 -55 529 C-55.0928125 530.1446875 -55.0928125 530.1446875 -55.1875 531.3125 C-55.30472627 534.02944306 -55.30472627 534.02944306 -53.5234375 535.37890625 C-51.54860915 537.48032617 -51.58088993 538.7849543 -51.4375 541.625 C-51.35358878 543.97141842 -51.35358878 543.97141842 -51 546 C-50.34 546.33 -49.68 546.66 -49 547 C-49 548.98 -49 550.96 -49 553 C-48.34 553 -47.68 553 -47 553 C-46.87625 553.969375 -46.7525 554.93875 -46.625 555.9375 C-46.41875 556.948125 -46.2125 557.95875 -46 559 C-45.34 559.33 -44.68 559.66 -44 560 C-43.71080072 561.99226169 -43.42735449 563.98722182 -43.24609375 565.9921875 C-43.0424937 568.20329268 -43.0424937 568.20329268 -42 571 C-41.34 571 -40.68 571 -40 571 C-39.938125 572.3921875 -39.938125 572.3921875 -39.875 573.8125 C-39.23449092 578.63109911 -36.72336393 582.42605041 -34.27734375 586.546875 C-33 589 -33 589 -33 592 C-32.34 592.33 -31.68 592.66 -31 593 C-29.71708143 595.10723729 -28.52857872 597.1991442 -27.375 599.375 C-27.05015625 599.96539063 -26.7253125 600.55578125 -26.390625 601.1640625 C-24.87751934 603.98683104 -24 605.74891663 -24 609 C-23.34 609 -22.68 609 -22 609 C-22 609.99 -22 610.98 -22 612 C-21.34 612.33 -20.68 612.66 -20 613 C-19.3671875 614.84765625 -19.3671875 614.84765625 -18.875 617.0625 C-18.70742188 617.79597656 -18.53984375 618.52945313 -18.3671875 619.28515625 C-18.24601562 619.85105469 -18.12484375 620.41695312 -18 621 C-17.34 621 -16.68 621 -16 621 C-15.731875 622.134375 -15.46375 623.26875 -15.1875 624.4375 C-14.795625 625.613125 -14.40375 626.78875 -14 628 C-13.01 628.33 -12.02 628.66 -11 629 C-10.30062468 630.31647119 -9.63270867 631.65022151 -9 633 C-8.34 633.33 -7.68 633.66 -7 634 C-6 635.8125 -6 635.8125 -5 638 C-4.443125 639.051875 -4.443125 639.051875 -3.875 640.125 C-3 642 -3 642 -3 644 C-2.34 644.33 -1.68 644.66 -1 645 C-1 646.65 -1 648.3 -1 650 C-4.73487777 649.5020163 -6.81237635 649.12508244 -10 647 C-10 646.34 -10 645.68 -10 645 C-11.28003906 644.65775391 -11.28003906 644.65775391 -12.5859375 644.30859375 C-16.49462023 642.81041444 -19.41773022 640.67666935 -22.625 638.0625 C-23.23182617 637.57668457 -23.83865234 637.09086914 -24.46386719 636.59033203 C-29.55603074 632.46639676 -34.4080366 628.10855091 -39.1875 623.62890625 C-41.84085259 621.14875862 -44.53530663 618.72510097 -47.25 616.3125 C-48.83514236 614.87699508 -50.418578 613.43960243 -52 612 C-52.71027344 611.36835937 -53.42054688 610.73671875 -54.15234375 610.0859375 C-59.83301124 604.78688874 -63.28409539 598.76825483 -67 592 C-67.95094204 590.43299066 -68.90901607 588.87028178 -69.875 587.3125 C-80.1540518 570.15355374 -88.95523348 551.86167854 -95.83642578 533.08032227 C-96.93696848 530.16686293 -98.13117124 527.31686924 -99.36328125 524.45703125 C-102.0592589 518.01325308 -104.27019975 511.46969596 -106.375 504.8125 C-106.95580322 502.97631104 -106.95580322 502.97631104 -107.54833984 501.10302734 C-108.70899604 497.40507825 -109.85591068 493.70310328 -111 490 C-111.32291016 488.97213379 -111.64582031 487.94426758 -111.97851562 486.88525391 C-122.01625294 454.6602482 -127.42144318 419.97611115 -129.74072266 386.33251953 C-129.86624589 383.97945634 -129.86624589 383.97945634 -131 382 C-131.0993256 378.96101151 -131.13980155 375.94541056 -131.1328125 372.90625 C-131.13376923 372.0037854 -131.13472595 371.1013208 -131.13571167 370.17150879 C-131.13639279 368.26163666 -131.13454321 366.35176222 -131.13037109 364.44189453 C-131.12502189 361.51199157 -131.13031837 358.58224192 -131.13671875 355.65234375 C-131.13605796 353.79947883 -131.13477677 351.946614 -131.1328125 350.09375 C-131.13483673 349.21352173 -131.13686096 348.33329346 -131.13894653 347.4263916 C-131.1149583 341.2299166 -131.1149583 341.2299166 -130 339 C-129.78811155 337.31747981 -129.58110469 335.63412838 -129.40478516 333.94750977 C-127.59044201 316.64193785 -123.89657569 297.2305858 -110.01953125 285.296875 C-102.72418611 280.46243471 -94.86789259 278.35818824 -86.1875 278.9375 C-85.37490723 278.9890625 -84.56231445 279.040625 -83.72509766 279.09375 C-67.63531109 280.44971746 -52.60372715 286.46566678 -39 295 C-38.67 295.66 -38.34 296.32 -38 297 C-36.88625 297.474375 -35.7725 297.94875 -34.625 298.4375 C-31 300 -31 300 -29.58984375 301.44140625 C-26.95774893 304.02176456 -23.59680024 305.19794174 -20.27734375 306.71875 C-18 308 -18 308 -16 311 C-15.401875 311.28875 -14.80375 311.5775 -14.1875 311.875 C-11.24019064 313.3907591 -9.33214406 315.66785594 -7 318 C-6.01 318.33 -5.02 318.66 -4 319 C-4 319.66 -4 320.32 -4 321 C-3.34 321 -2.68 321 -2 321 C-1.67 322.32 -1.34 323.64 -1 325 C-0.67 323.02 -0.34 321.04 0 319 C0.66 319 1.32 319 2 319 C7.09645289 302.98774022 11.36600659 288.02604137 4 272 C-5.54831964 257.79637928 -20.36993527 252.47072601 -36.34765625 249.02734375 C-76.19206584 241.36922603 -121.94819309 248.60523745 -161 258 C-162.71799805 258.39795776 -162.71799805 258.39795776 -164.47070312 258.80395508 C-197.29243194 266.4359103 -229.10331299 276.47319659 -260 290 C-260.87350098 290.38220703 -261.74700195 290.76441406 -262.64697266 291.15820312 C-276.7324113 297.4037114 -290.7715833 304.61018856 -303.48046875 313.35546875 C-306 315 -306 315 -308 315 C-308 315.66 -308 316.32 -308 317 C-309.65 317.33 -311.3 317.66 -313 318 C-313 318.66 -313 319.32 -313 320 C-316.96 321.98 -320.92 323.96 -325 326 C-326 322 -326 322 -324.2265625 318.71484375 C-323.37416153 317.44567226 -322.50590793 316.18705388 -321.625 314.9375 C-321.16528809 314.26920166 -320.70557617 313.60090332 -320.23193359 312.91235352 C-316.12262959 307.0141523 -311.67241529 301.4613641 -307 296 C-306.1211114 294.93725884 -305.24356729 293.87340473 -304.3671875 292.80859375 C-282.0887836 265.96700349 -282.0887836 265.96700349 -267.16748047 258.14355469 C-264.40532144 256.68624979 -261.67554386 255.17326983 -258.94140625 253.6640625 C-228.4469595 236.92584173 -195.57511195 221.48290548 -161.60620117 213.39428711 C-157.65817926 212.44983887 -153.83546417 211.32744342 -150 210 C-147.83342318 209.40911541 -145.71347832 208.94985871 -143.5 208.5625 C-141.02682327 208.13911972 -141.02682327 208.13911972 -139.1875 206.9375 C-135.79714167 205.48448929 -132.66645591 205.8777848 -129 206 C-129 205.34 -129 204.68 -129 204 C-125.7 204 -122.4 204 -119 204 C-119 203.34 -119 202.68 -119 202 C-117.0085944 201.61866701 -115.00720923 201.28674418 -113 201 C-112.67 201.33 -112.34 201.66 -112 202 C-111.01 201.34 -110.02 200.68 -109 200 C-104.82699392 199.76816633 -101.05979772 200.01580661 -97 201 C-97 200.34 -97 199.68 -97 199 C-93.34898276 198.40391555 -89.95598171 198.00073364 -86.25 198.0625 C-82.84996311 198.28896404 -82.84996311 198.28896404 -80 196 C-76.36556634 195.88369812 -72.79121947 195.9568875 -69.16015625 196.078125 C-64.29050506 196.20165923 -64.29050506 196.20165923 -60 194 C-57.87512207 193.74603271 -57.87512207 193.74603271 -55.39257812 193.74121094 C-54.46151245 193.73490662 -53.53044678 193.72860229 -52.57116699 193.72210693 C-51.56799438 193.7261554 -50.56482178 193.73020386 -49.53125 193.734375 C-47.98346863 193.73150482 -47.98346863 193.73150482 -46.40441895 193.72857666 C-44.22224687 193.72721533 -42.04006668 193.73090813 -39.85791016 193.73925781 C-36.51316173 193.74995789 -33.16895043 193.73936059 -29.82421875 193.7265625 C-27.70572798 193.7278841 -25.58723754 193.73044651 -23.46875 193.734375 C-22.46557739 193.73032654 -21.46240479 193.72627808 -20.42883301 193.72210693 C-19.49776733 193.72841125 -18.56670166 193.73471558 -17.60742188 193.74121094 C-16.78818237 193.74280212 -15.96894287 193.74439331 -15.12487793 193.74603271 C-13 194 -13 194 -10 196 C-7.4673418 196.13530061 -5.00484243 195.99721713 -2.47265625 195.875 C0.22067282 196.01115566 1.65998873 196.73084135 4 198 C4.845625 198 5.69125 198 6.5625 198 C9 198 9 198 12 200 C14.04705225 200.59739945 16.11233108 201.13409983 18.1875 201.625 C19.27417969 201.88539063 20.36085938 202.14578125 21.48046875 202.4140625 C22.31191406 202.60742188 23.14335937 202.80078125 24 203 C24 203.66 24 204.32 24 205 C25.98 205.33 27.96 205.66 30 206 C30 206.66 30 207.32 30 208 C30.639375 208.103125 31.27875 208.20625 31.9375 208.3125 C32.9584375 208.6528125 32.9584375 208.6528125 34 209 C34.33 209.99 34.66 210.98 35 212 C35.66 212 36.32 212 37 212 C37 212.66 37 213.32 37 214 C37.598125 214.185625 38.19625 214.37125 38.8125 214.5625 C41.97952661 216.64368892 42.85216733 219.53758167 44 223 C44.36222656 224.02996094 44.72445313 225.05992187 45.09765625 226.12109375 C46.20153754 230.8663497 46.10048006 235.04130939 45.8125 239.875 C45.78091797 240.72191406 45.74933594 241.56882812 45.71679688 242.44140625 C45.40266697 248.38711143 44.15241081 253.46210467 42 259 C41.63777344 259.95390625 41.27554687 260.9078125 40.90234375 261.890625 C40.58394531 262.66921875 40.26554687 263.4478125 39.9375 264.25 C39.61652344 265.03890625 39.29554688 265.8278125 38.96484375 266.640625 C38.64644531 267.41921875 38.32804687 268.1978125 38 269 C37.53207031 270.20462891 37.53207031 270.20462891 37.0546875 271.43359375 C33.79600479 279.36305502 29.68811256 286.8386312 25 294 C24.26317013 295.15290989 23.52761083 296.3066323 22.79296875 297.4609375 C21.98719466 298.72409582 21.18120335 299.98711561 20.375 301.25 C19.99045654 301.85312012 19.60591309 302.45624023 19.2097168 303.07763672 C14.92382392 309.75368536 14.92382392 309.75368536 13 312 C12.34 312 11.68 312 11 312 C10.7525 312.721875 10.505 313.44375 10.25 314.1875 C8.88863197 317.25057808 7.11016723 319.41334339 5 322 C4.67 322.99 4.34 323.98 4 325 C5.55851755 325.82011312 7.12201716 326.63076213 8.6875 327.4375 C9.99267578 328.11619141 9.99267578 328.11619141 11.32421875 328.80859375 C13.94086722 329.97367081 16.19551352 330.48735193 19 331 C19.91265625 331.34289062 20.8253125 331.68578125 21.765625 332.0390625 C30.7063 334.69535 42.50009794 334.37430771 50.8984375 330.26171875 C64.49223067 322.10038939 70.59901242 311.41481856 74.75 296.125 C75.19726384 294.08981722 75.61304945 292.04750657 76 290 C76.30744141 288.40865234 76.30744141 288.40865234 76.62109375 286.78515625 C88.30112592 212.596814 62.03031172 123.36609057 4.51123047 11.28222656 C3.76317139 10.15252441 3.76317139 10.15252441 3 9 C2.44070801 8.16178711 1.88141602 7.32357422 1.30517578 6.45996094 C0 4 0 4 0 0 Z M124 225 C125 227 125 227 125 227 Z M125 232 C126 234 126 234 126 234 Z " fill="#E67C73" transform="translate(386,60)"/>
<path d="M0 0 C-2.13565591 3.21032891 -4.10023524 4.89129095 -7.5 6.6875 C-8.2734375 7.10386719 -9.046875 7.52023437 -9.84375 7.94921875 C-12 9 -12 9 -15 10 C-15 10.66 -15 11.32 -15 12 C-16.65 12.33 -18.3 12.66 -20 13 C-20 13.66 -20 14.32 -20 15 C-20.66 15 -21.32 15 -22 15 C-22 15.66 -22 16.32 -22 17 C-22.66 17 -23.32 17 -24 17 C-25.04868393 23.59172755 -22.2775525 27.52574957 -18.82421875 33.03515625 C-14 40.875803 -14 40.875803 -14 44 C-13.34 44 -12.68 44 -12 44 C-10.5393715 46.64738916 -10 47.89448334 -10 51 C-9.34 51 -8.68 51 -8 51 C-7.34 53.31 -6.68 55.62 -6 58 C-5.34 58 -4.68 58 -4 58 C0.40774487 67.41002278 0.40774487 67.41002278 1 72 C-3.55463759 76.0232632 -8.66914325 78.66669074 -14 81.5 C-22.84118417 86.24511747 -31.57366956 91.14281954 -40.20898438 96.25390625 C-41.02818359 96.73085938 -41.84738281 97.2078125 -42.69140625 97.69921875 C-43.40498291 98.12033936 -44.11855957 98.54145996 -44.85375977 98.9753418 C-47.22291624 100.10642469 -49.41582591 100.587358 -52 101 C-56.34397566 94.47118451 -60.1198762 87.89457796 -63.53125 80.8359375 C-64.88545905 78.22116152 -66.36426462 75.90005714 -68.0625 73.5 C-73.79427832 65.12162219 -77.65130986 56.27305268 -76 46 C-73.72421266 37.63049262 -66.92388739 32.30213821 -59.7109375 28.0703125 C-56.54136866 26.35075423 -53.32516765 24.72563667 -50.109375 23.09472656 C-46.37525318 21.15678649 -42.72622143 19.06698686 -39.0625 17 C-32.60616791 13.38033149 -26.08139547 9.95577741 -19.43066406 6.70727539 C-15.10623066 4.58953293 -10.95447843 2.30295672 -6.89453125 -0.28515625 C-4.32633417 -1.25418731 -2.59877276 -0.71365262 0 0 Z " fill="#E67C73" transform="translate(138,366)"/>
<path d="M0 0 C0 1.32 0 2.64 0 4 C0.66 4 1.32 4 2 4 C6 10.5 6 10.5 6 15 C7.485 15.495 7.485 15.495 9 16 C10.88579937 19.21284338 12 21.24633583 12 25 C13.485 25.495 13.485 25.495 15 26 C15.70626239 27.98636298 16.36893571 29.98848259 17 32 C17.53625 32.70125 18.0725 33.4025 18.625 34.125 C20 36 20 36 20 40 C20.66 40 21.32 40 22 40 C22 40.99 22 41.98 22 43 C22.66 43 23.32 43 24 43 C27.004258 48.28749409 27.004258 48.28749409 26.98828125 50.9609375 C25.44832054 54.13824775 22.63210969 55.29152524 19.625 56.875 C18.98941162 57.22304688 18.35382324 57.57109375 17.69897461 57.9296875 C16.40673917 58.63557537 15.1114065 59.33582384 13.81298828 60.03027344 C11.38311686 61.32995688 8.97491782 62.66825804 6.5625 64 C4.70961819 65.00237868 2.85531053 66.00212382 1 67 C0.37851074 67.33596191 -0.24297852 67.67192383 -0.88330078 68.01806641 C-2.92071754 69.11898806 -4.96008822 70.21620925 -7 71.3125 C-7.64767334 71.66248047 -8.29534668 72.01246094 -8.96264648 72.37304688 C-16.14614278 76.21840268 -23.31657369 77.56459165 -31.35546875 75.3515625 C-40.73424628 71.10662257 -45.12648387 61.68422495 -49.8125 53.0625 C-51.0505495 50.81497649 -52.28883056 48.56758052 -53.52734375 46.3203125 C-54.42042236 44.69077637 -54.42042236 44.69077637 -55.33154297 43.02832031 C-57.11971945 39.78270412 -58.94611299 36.56113899 -60.78564453 33.34448242 C-65.52059524 25.05566575 -69.80442516 16.57225364 -74 8 C-74.40347656 7.25234375 -74.80695313 6.5046875 -75.22265625 5.734375 C-76 4 -76 4 -76 1 C-73.6484375 1.22265625 -73.6484375 1.22265625 -71 2 C-69.6640625 3.93359375 -69.6640625 3.93359375 -68.625 6.4375 C-64.48510375 16.13784524 -64.48510375 16.13784524 -56.97265625 23.0234375 C-45.33789713 25.25360833 -32.77889105 15.16684129 -23.4453125 9.4296875 C-18.91091568 6.66269136 -14.32835394 4.03375377 -9.625 1.5625 C-8.64789063 1.04816406 -7.67078125 0.53382813 -6.6640625 0.00390625 C-3.84003682 -1.06027938 -2.75312553 -1.10255501 0 0 Z " fill="#E67C73" transform="translate(441,633)"/>
<path d="M0 0 C2.83712307 1.15755801 3.48541392 3.10079015 4.87890625 5.76660156 C5.32105469 6.49363281 5.76320313 7.22066406 6.21875 7.96972656 C8.60022853 11.98181745 10.74407022 16.11211962 12.91796875 20.23925781 C14.37850908 22.99867561 15.84976225 25.71836321 17.46484375 28.39160156 C22.73980271 37.25120114 26.54505727 47.7267617 24.38671875 58.14160156 C24.21914063 58.67785156 24.0515625 59.21410156 23.87890625 59.76660156 C23.21890625 59.76660156 22.55890625 59.76660156 21.87890625 59.76660156 C21.71390625 60.46785156 21.54890625 61.16910156 21.37890625 61.89160156 C16.42331459 71.38981891 1.82143651 76.92262495 -7.359375 81.37207031 C-10.03393195 82.72258917 -12.57000368 84.1973455 -15.12109375 85.76660156 C-21.79667903 89.76660156 -21.79667903 89.76660156 -24.12109375 89.76660156 C-24.45109375 90.42660156 -24.78109375 91.08660156 -25.12109375 91.76660156 C-26.69995117 92.68041992 -26.69995117 92.68041992 -28.7265625 93.60644531 C-29.46326172 93.94740234 -30.19996094 94.28835938 -30.95898438 94.63964844 C-32.12204102 95.16655273 -32.12204102 95.16655273 -33.30859375 95.70410156 C-34.82321076 96.40007647 -36.33753894 97.09668034 -37.8515625 97.79394531 C-38.58036621 98.1263623 -39.30916992 98.4587793 -40.06005859 98.80126953 C-41.89168734 99.65915392 -43.69100064 100.58528704 -45.484375 101.52050781 C-48.12109375 102.76660156 -48.12109375 102.76660156 -51.12109375 102.76660156 C-50.74615569 100.34549984 -50.49761112 99.09443345 -48.61816406 97.45800781 C-47.98491211 97.08546875 -47.35166016 96.71292969 -46.69921875 96.32910156 C-46.003125 95.90886719 -45.30703125 95.48863281 -44.58984375 95.05566406 C-43.85765625 94.63027344 -43.12546875 94.20488281 -42.37109375 93.76660156 C-34.10888295 89.442 -34.10888295 89.442 -28.12109375 82.76660156 C-28.09277514 76.47582418 -29.7333925 71.59619816 -32.80859375 66.20410156 C-33.18999512 65.50446289 -33.57139648 64.80482422 -33.96435547 64.08398438 C-36.49517468 59.49521213 -39.16981452 54.99732653 -41.8671875 50.50488281 C-42.82782104 48.89432007 -42.82782104 48.89432007 -43.80786133 47.2512207 C-45.08615268 45.11794421 -46.37870317 42.9931387 -47.6862793 40.87768555 C-48.27578369 39.89743408 -48.86528809 38.91718262 -49.47265625 37.90722656 C-50.00713379 37.03614258 -50.54161133 36.16505859 -51.09228516 35.26757812 C-52.33529828 32.24588224 -52.22785417 30.81552924 -51.12109375 27.76660156 C-48.94612194 26.19474694 -46.99265589 25.02999553 -44.62109375 23.82910156 C-43.17263763 23.05537102 -41.72476176 22.28055362 -40.27734375 21.50488281 C-39.4678125 21.07771973 -38.65828125 20.65055664 -37.82421875 20.21044922 C-32.54639701 17.3913526 -27.33999557 14.4428487 -22.12109375 11.51660156 C-21.05955078 10.9262915 -19.99800781 10.33598145 -18.90429688 9.7277832 C-13.73420492 6.84386677 -8.68028148 3.94076527 -3.83984375 0.52539062 C-2.12109375 -0.23339844 -2.12109375 -0.23339844 0 0 Z " fill="#E67C73" transform="translate(685.12109375,303.2333984375)"/>
<path d="M0 0 C0 0.66 0 1.32 0 2 C1.65 2 3.3 2 5 2 C5 2.66 5 3.32 5 4 C5.556875 4.061875 6.11375 4.12375 6.6875 4.1875 C10.08522956 5.38129687 11.68293125 7.26704711 14 10 C15.07136051 12.30144109 16.07989717 14.6340213 17 17 C17.99 18.485 17.99 18.485 19 20 C19.495 21.546875 19.495 21.546875 20 23.125 C20.6686673 26.12511062 20.6686673 26.12511062 23 27 C25.63668069 31.92180395 27.87341515 36.9456665 29.97265625 42.1171875 C30.99039263 44.32921551 30.99039263 44.32921551 34 46 C34.13535156 46.6909375 34.27070313 47.381875 34.41015625 48.09375 C35.2690124 52.32546507 37.36366994 55.74179154 39.4375 59.5 C46 71.50533175 46 71.50533175 46 76 C45.01 76 44.02 76 43 76 C41.52954102 74.21166992 41.52954102 74.21166992 40.00390625 71.73046875 C39.44509766 70.84166016 38.88628906 69.95285156 38.31054688 69.03710938 C37.44526367 67.62655273 37.44526367 67.62655273 36.5625 66.1875 C35.42482127 64.34341109 34.28051689 62.50338961 33.12890625 60.66796875 C32.62431885 59.84578857 32.11973145 59.0236084 31.59985352 58.17651367 C29.91241848 55.88085011 28.43712519 54.46769684 26 53 C17.95156365 52.70732959 11.77840034 57.09145588 5 61 C-1.20955509 64.49186859 -7.46251217 67.90068431 -13.75 71.25 C-14.57371094 71.69601563 -15.39742188 72.14203125 -16.24609375 72.6015625 C-17.04660156 73.02695313 -17.84710938 73.45234375 -18.671875 73.890625 C-19.3844043 74.27250977 -20.09693359 74.65439453 -20.83105469 75.04785156 C-23.20461213 76.08982297 -25.4487555 76.57870382 -28 77 C-33.48901019 67.74678718 -38.9270444 58.48992556 -44 49 C-44.99734896 47.14440601 -45.99739193 45.2902577 -47 43.4375 C-47.48597656 42.53773437 -47.97195313 41.63796875 -48.47265625 40.7109375 C-50.50124748 37.11031777 -52.72636329 33.6443546 -54.99609375 30.19140625 C-56 28 -56 28 -55.87109375 25.86328125 C-54.7887687 23.54817341 -53.83020861 22.89412006 -51.625 21.625 C-50.89667969 21.19960937 -50.16835938 20.77421875 -49.41796875 20.3359375 C-46.00177958 18.44847919 -42.57044536 16.59027425 -39.1328125 14.7421875 C-35.47091902 12.70577292 -31.89476708 10.54723994 -28.3125 8.375 C-26.41500054 7.2401679 -24.51608631 6.10774344 -22.61669922 4.97607422 C-21.30524053 4.18428747 -20.01107848 3.36390125 -18.72265625 2.53515625 C-12.83779056 -0.96092675 -6.66790226 -0.36592147 0 0 Z " fill="#E67C73" transform="translate(360,61)"/>
<path d="M0 0 C0.66 0 1.32 0 2 0 C4.16037476 4.35490564 4.26989668 8.36333943 4.1875 13.125 C4.18685547 13.84042969 4.18621094 14.55585938 4.18554688 15.29296875 C4.15897902 18.45159104 4.00523113 20.98430662 3 24 C3.66 24 4.32 24 5 24 C4.9278125 24.9178125 4.855625 25.835625 4.78125 26.78125 C4.14646295 34.60050413 4.14646295 34.60050413 4.0625 42.4375 C4 46 4 46 3 49.3125 C1.85724146 53.52642211 1.92888577 57.11632009 2.125 61.44921875 C1.99207024 64.16181656 1.38344344 65.69245958 0 68 C-0.66 68 -1.32 68 -2 68 C-1.69270217 64.41620061 -1.37825744 60.83306316 -1.0625 57.25 C-0.97548828 56.23421875 -0.88847656 55.2184375 -0.79882812 54.171875 C-0.66831055 52.70234375 -0.66831055 52.70234375 -0.53515625 51.203125 C-0.456604 50.30239258 -0.37805176 49.40166016 -0.29711914 48.47363281 C0 46 0 46 0.52734375 44.1640625 C1.25011865 40.85482866 1.12171204 37.54193889 1.09765625 34.171875 C1.0962413 33.42286926 1.09482635 32.67386353 1.09336853 31.90216064 C1.08778659 29.51806588 1.07523745 27.13406622 1.0625 24.75 C1.05748266 23.13020969 1.05292016 21.51041791 1.04882812 19.890625 C1.03782308 15.92704688 1.02057091 11.96353955 1 8 C0.67 8 0.34 8 0 8 C0 5.36 0 2.72 0 0 Z " fill="#EE8378" transform="translate(513,322)"/>
<path d="M0 0 C-0.33 0.66 -0.66 1.32 -1 2 C-3.11035156 2.48657227 -3.11035156 2.48657227 -5.890625 2.81640625 C-7.41212158 3.00227295 -7.41212158 3.00227295 -8.96435547 3.19189453 C-10.59074951 3.37534424 -10.59074951 3.37534424 -12.25 3.5625 C-13.34070801 3.69253418 -14.43141602 3.82256836 -15.55517578 3.95654297 C-22.29739017 4.74425517 -29.02637096 5.40947677 -35.8046875 5.7890625 C-38.04220438 5.87126221 -38.04220438 5.87126221 -40 7 C-41.34203022 7.10385543 -42.68892782 7.14858854 -44.03491211 7.16113281 C-44.86594955 7.17074036 -45.696987 7.1803479 -46.5532074 7.19024658 C-47.90165489 7.1966214 -47.90165489 7.1966214 -49.27734375 7.203125 C-50.19963272 7.20882507 -51.12192169 7.21452515 -52.07215881 7.22039795 C-54.02490082 7.22985248 -55.97765882 7.23638372 -57.93041992 7.24023438 C-60.92199397 7.24994964 -63.91288389 7.28097255 -66.90429688 7.3125 C-68.79947508 7.31902899 -70.6946582 7.32427987 -72.58984375 7.328125 C-73.9352549 7.3466452 -73.9352549 7.3466452 -75.30784607 7.36553955 C-76.14203568 7.36253845 -76.97622528 7.35953735 -77.83569336 7.35644531 C-78.5691246 7.36009094 -79.30255585 7.36373657 -80.05821228 7.36749268 C-82.52009093 6.90157029 -83.41677743 5.88715407 -85 4 C-83.99026123 4.01047363 -82.98052246 4.02094727 -81.94018555 4.03173828 C-56.88960752 4.29126029 -56.88960752 4.29126029 -31.875 3.125 C-30.83690186 3.04652832 -29.79880371 2.96805664 -28.72924805 2.88720703 C-22.64416397 2.36896775 -16.67870648 1.50887011 -10.67138672 0.41015625 C-7.05931432 -0.1444299 -3.64638971 -0.14024576 0 0 Z " fill="#EF8379" transform="translate(482,509)"/>
<path d="M0 0 C-1.6875 2 -1.6875 2 -4 4 C-6.375 4.125 -6.375 4.125 -9 4 C-9.9075 4.30550781 -10.815 4.61101562 -11.75 4.92578125 C-15.06357207 6.0210124 -18.17271624 6.58144407 -21.625 7.0625 C-25.81483817 7.62719537 -25.81483817 7.62719537 -29.94580078 8.49560547 C-33.33069789 9.32674374 -36.79398151 9.65034232 -40.25 10.0625 C-40.99507813 10.15337891 -41.74015625 10.24425781 -42.5078125 10.33789062 C-44.33827056 10.56083103 -46.16910009 10.7807178 -48 11 C-47.67 10.34 -47.34 9.68 -47 9 C-44.47749763 8.34588378 -42.01508103 7.81465751 -39.45703125 7.34375 C-38.69581467 7.19595093 -37.93459808 7.04815186 -37.15031433 6.89587402 C-34.7058675 6.42239734 -32.25941761 5.96052281 -29.8125 5.5 C-27.38377988 5.03791437 -24.95560441 4.57330322 -22.52824402 4.10412598 C-21.01650134 3.81243655 -19.50392488 3.52502529 -17.99043274 3.24255371 C-0.85295151 -0.04061674 -0.85295151 -0.04061674 0 0 Z " fill="#EE8379" transform="translate(532,499)"/>
<path d="" fill="#F0857A" transform="translate(0,0)"/>
<path d="" fill="#F0857A" transform="translate(0,0)"/>
<path d="" fill="#F0867B" transform="translate(0,0)"/>
<path d="" fill="#F0857B" transform="translate(0,0)"/>
<path d="" fill="#F0857B" transform="translate(0,0)"/>
<path d="" fill="#F0857A" transform="translate(0,0)"/>
</svg>
